<svg width="37" height="34" viewBox="0 0 37 34" fill="none" xmlns="http://www.w3.org/2000/svg">
<path d="M2 30.702V5.32016C2 3.48649 3.64162 2 5.66667 2H31.3333C33.3584 2 35 3.48649 35 5.32016V21.921C35 23.7547 33.3584 25.2411 31.3333 25.2411H11.0956C9.98175 25.2411 8.92828 25.6997 8.23243 26.4872L3.95895 31.3242C3.30939 32.0594 2 31.6436 2 30.702Z" stroke="black" stroke-width="3"/>
<path d="M15.75 13.6203H12.0833C11.0708 13.6203 10.25 12.8771 10.25 11.9602V10.3002C10.25 9.38333 11.0708 8.64008 12.0833 8.64008H13.9167C14.9292 8.64008 15.75 9.38333 15.75 10.3002V13.6203ZM15.75 13.6203C15.75 15.2804 13.9167 16.9405 12.0833 18.6006" stroke="black" stroke-width="3" stroke-linecap="round"/>
<path d="M26.75 13.6203H23.0834C22.0708 13.6203 21.25 12.8771 21.25 11.9602V10.3002C21.25 9.38333 22.0708 8.64008 23.0834 8.64008H24.9167C25.9292 8.64008 26.75 9.38333 26.75 10.3002V13.6203ZM26.75 13.6203C26.75 15.2804 24.9167 16.9405 23.0834 18.6006" stroke="black" stroke-width="3" stroke-linecap="round"/>
</svg>
