<svg width="30" height="30" viewBox="0 0 30 30" fill="none" xmlns="http://www.w3.org/2000/svg">
<path d="M13.6295 4.74098H4.58432C3.89892 4.74098 3.24159 5.01326 2.75693 5.49791C2.27228 5.98257 2 6.6399 2 7.32531V25.4156C2 26.101 2.27228 26.7583 2.75693 27.243C3.24159 27.7276 3.89892 27.9999 4.58432 27.9999H22.6746C23.36 27.9999 24.0173 27.7276 24.502 27.243C24.9866 26.7583 25.2589 26.101 25.2589 25.4156V16.3704" stroke="#363636" stroke-width="4" stroke-linecap="round" stroke-linejoin="round"/>
<path d="M23.3207 2.80285C23.8347 2.28879 24.5319 2 25.2589 2C25.9859 2 26.6831 2.28879 27.1972 2.80285C27.7112 3.3169 28 4.01411 28 4.74109C28 5.46807 27.7112 6.16528 27.1972 6.67933L14.9216 18.9549L9.75299 20.247L11.0452 15.0784L23.3207 2.80285Z" stroke="#363636" stroke-width="4" stroke-linecap="round" stroke-linejoin="round"/>
</svg>
