<svg width="24" height="28" viewBox="0 0 24 28" fill="none" xmlns="http://www.w3.org/2000/svg">
<path d="M1.71429 24.8572C1.71429 25.5391 1.9852 26.1932 2.46744 26.6754C2.94968 27.1577 3.60373 27.4286 4.28571 27.4286H19.7143C20.3963 27.4286 21.0503 27.1577 21.5326 26.6754C22.0148 26.1932 22.2857 25.5391 22.2857 24.8572V6.85715H1.71429V24.8572ZM16.2857 11.1429C16.2857 10.9155 16.376 10.6975 16.5368 10.5368C16.6975 10.376 16.9155 10.2857 17.1429 10.2857C17.3702 10.2857 17.5882 10.376 17.7489 10.5368C17.9097 10.6975 18 10.9155 18 11.1429V23.1429C18 23.3702 17.9097 23.5882 17.7489 23.749C17.5882 23.9097 17.3702 24 17.1429 24C16.9155 24 16.6975 23.9097 16.5368 23.749C16.376 23.5882 16.2857 23.3702 16.2857 23.1429V11.1429ZM11.1429 11.1429C11.1429 10.9155 11.2332 10.6975 11.3939 10.5368C11.5547 10.376 11.7727 10.2857 12 10.2857C12.2273 10.2857 12.4453 10.376 12.6061 10.5368C12.7668 10.6975 12.8571 10.9155 12.8571 11.1429V23.1429C12.8571 23.3702 12.7668 23.5882 12.6061 23.749C12.4453 23.9097 12.2273 24 12 24C11.7727 24 11.5547 23.9097 11.3939 23.749C11.2332 23.5882 11.1429 23.3702 11.1429 23.1429V11.1429ZM6 11.1429C6 10.9155 6.09031 10.6975 6.25105 10.5368C6.4118 10.376 6.62981 10.2857 6.85714 10.2857C7.08447 10.2857 7.30249 10.376 7.46323 10.5368C7.62398 10.6975 7.71429 10.9155 7.71429 11.1429V23.1429C7.71429 23.3702 7.62398 23.5882 7.46323 23.749C7.30249 23.9097 7.08447 24 6.85714 24C6.62981 24 6.4118 23.9097 6.25105 23.749C6.09031 23.5882 6 23.3702 6 23.1429V11.1429ZM23.1429 1.7143H16.7143L16.2107 0.712509C16.104 0.498338 15.9397 0.318182 15.7362 0.192309C15.5328 0.0664349 15.2982 -0.000162212 15.0589 9.39253e-06H8.93571C8.69699 -0.000908315 8.46283 0.0654405 8.26007 0.191454C8.05731 0.317468 7.89415 0.498049 7.78929 0.712509L7.28571 1.7143H0.857143C0.629814 1.7143 0.411797 1.8046 0.251051 1.96535C0.0903059 2.12609 0 2.34411 0 2.57144L0 4.28572C0 4.51305 0.0903059 4.73107 0.251051 4.89182C0.411797 5.05256 0.629814 5.14287 0.857143 5.14287H23.1429C23.3702 5.14287 23.5882 5.05256 23.7489 4.89182C23.9097 4.73107 24 4.51305 24 4.28572V2.57144C24 2.34411 23.9097 2.12609 23.7489 1.96535C23.5882 1.8046 23.3702 1.7143 23.1429 1.7143Z" fill="#C92727"/>
</svg>
